<?xml version="1.0" encoding="iso-8859-1"?>
<!DOCTYPE svg PUBLIC "-//W3C//DTD SVG 1.1//EN" "http://www.w3.org/Graphics/SVG/1.1/DTD/svg11.dtd">
<svg xmlns="http://www.w3.org/2000/svg" xmlns:xlink="http://www.w3.org/1999/xlink" version="1.1" viewBox="0 0 512 512" enable-background="new 0 0 512 512" width="512px" height="512px">
  <g>
    <path d="M160,112h192l43.438-63.539c5.938-9.883,6.086-22.195,0.406-32.227C390.164,6.203,379.531,0,368,0h-48   c-8.484,0-16.625,3.375-22.625,9.375L272,34.742L246.625,9.375C240.625,3.375,232.484,0,224,0h-80   c-11.531,0-22.164,6.203-27.844,16.234c-5.68,10.031-5.531,22.344,0.406,32.227L160,112z" fill="#FFFFFF"/>
    <path d="M352,144H160C88.446,198.389,32,300.424,32,380.625C32,512,151.008,512,256,512s224,0,224-131.375   C480,300.424,423.554,198.389,352,144z" fill="#FFFFFF"/>
  </g>
</svg>
