<?xml version="1.0" encoding="iso-8859-1"?>
<!-- Generator: Adobe Illustrator 19.0.0, SVG Export Plug-In . SVG Version: 6.00 Build 0)  -->
<svg version="1.1" id="Layer_1" xmlns="http://www.w3.org/2000/svg" xmlns:xlink="http://www.w3.org/1999/xlink" x="0px" y="0px"
	 viewBox="0 0 496.042 496.042" style="enable-background:new 0 0 496.042 496.042;" xml:space="preserve">
<g>
	<g>
		<path d="M494.959,29.264c2.528-7.648,0.552-15.936-5.136-21.624c-5.504-5.52-13.568-7.552-21.064-5.328L298.247,53.32
			l-50.232,75.168l-48.64-72.768l-1.592-2.392L27.279,2.32c-7.456-2.24-15.552-0.2-21.056,5.32
			c-5.696,5.696-7.672,13.984-5.136,21.624l53.944,163.504l0.84,2.576l101.36,68.96l-29.56,44.216
			c-5.456-1.16-11.064-1.8-16.776-1.8c-21.376,0-41.464,8.32-56.568,23.44l-5.656,5.672l28.28,28.28l-62.216,62.224
			c-7.552,7.544-11.72,17.592-11.72,28.28s4.168,20.736,11.72,28.28c7.544,7.552,17.592,11.72,28.28,11.72s20.736-4.168,28.28-11.72
			l62.232-62.224l28.288,28.288l5.656-5.656c20.72-20.712,27.592-50.048,20.784-76.56l59.76-40.664l59.768,40.664
			c-6.8,26.512,0.072,55.84,20.792,76.552l5.656,5.656l28.28-28.28l62.224,62.216c7.8,7.8,18.04,11.696,28.28,11.696
			c10.248,0,20.496-3.896,28.288-11.696c15.592-15.592,15.592-40.968,0-56.56l-62.224-62.224l28.28-28.28l-5.656-5.656
			c-15.112-15.12-35.192-23.44-56.568-23.44c-5.712,0-11.32,0.64-16.776,1.8l-29.56-44.224l101.368-68.952L494.959,29.264z
			 M170.455,273.312l25.32,17.224l-34.248,34.248c-5.544-4.544-11.632-8.216-18.064-11.088L170.455,273.312z M26.047,471.592
			c-4.528-4.528-7.032-10.552-7.032-16.968c0-3.632,0.88-7.104,2.4-10.288l31.8,31.8C44.327,480.144,33.135,478.68,26.047,471.592z
			 M65.639,465.928l-33.936-33.936l11.312-11.312l33.944,33.936L65.639,465.928z M88.271,443.304l-33.944-33.936l11.312-11.32
			l21.856,21.856l11.312-11.312l-21.856-21.856l11.312-11.312l33.944,33.944L88.271,443.304z M161.463,425.984l-89.816-89.808
			c11.168-8.712,24.84-13.44,39.248-13.44c17.056,0,33.088,6.632,45.176,18.672l0.16,0.16
			C179.191,364.616,180.935,400.928,161.463,425.984z M182.535,351.28c-2.624-5.32-5.824-10.424-9.704-15.168l36.408-36.408
			l24.544,16.704L182.535,351.28z M469.999,471.592c-7.368,7.368-18.336,8.84-27.248,4.616l31.864-31.856
			C478.847,453.264,477.367,464.224,469.999,471.592z M464.343,431.992l-33.944,33.936l-11.312-11.304l33.944-33.944
			L464.343,431.992z M441.719,409.368l-33.944,33.944l-11.32-11.32l33.944-33.944L441.719,409.368z M419.087,386.736l-33.944,33.944
			l-11.312-11.312l33.944-33.944L419.087,386.736z M385.135,322.736c14.408,0,28.08,4.728,39.256,13.44l-89.808,89.808
			c-19.504-25.088-17.736-61.464,5.304-84.496C351.975,329.392,368.047,322.736,385.135,322.736z M352.575,313.704
			c-6.392,2.856-12.448,6.504-17.96,11.016l-33.072-33.072l-11.312,11.312l33.056,33.056c-3.92,4.768-7.144,9.904-9.784,15.264
			L69.367,185.184L18.615,31.344l261.288,261.288l11.312-11.312l-261.6-261.6L187.679,67L352.575,313.704z M329.911,251.016
			l-28.832-43.144L449.543,59.4l-11.312-11.312L292.015,194.304l-34.376-51.432L308.359,67l158.32-47.36l-17.4,17.4l11.312,11.312
			l16.744-16.744l-50.672,153.576L329.911,251.016z"/>
	</g>
</g>
<g>
</g>
<g>
</g>
<g>
</g>
<g>
</g>
<g>
</g>
<g>
</g>
<g>
</g>
<g>
</g>
<g>
</g>
<g>
</g>
<g>
</g>
<g>
</g>
<g>
</g>
<g>
</g>
<g>
</g>
</svg>
